<svg xmlns="http://www.w3.org/2000/svg" xmlns:xlink="http://www.w3.org/1999/xlink" width="377" zoomAndPan="magnify" viewBox="0 0 283.5 84.749997" height="113" preserveAspectRatio="xMidYMid meet" version="1.0"><defs><g/></defs><g fill="#ffffff" fill-opacity="1"><g transform="translate(10.258455, 41.178659)"><g><path d="M 7.859375 0.21875 C 6.503906 0.21875 5.285156 -0.0703125 4.203125 -0.65625 C 3.117188 -1.238281 2.269531 -2.039062 1.65625 -3.0625 C 1.039062 -4.09375 0.734375 -5.25 0.734375 -6.53125 C 0.734375 -7.800781 1.039062 -8.945312 1.65625 -9.96875 C 2.269531 -11 3.117188 -11.804688 4.203125 -12.390625 C 5.285156 -12.972656 6.503906 -13.265625 7.859375 -13.265625 C 9.210938 -13.265625 10.429688 -12.972656 11.515625 -12.390625 C 12.597656 -11.804688 13.445312 -11 14.0625 -9.96875 C 14.6875 -8.945312 15 -7.800781 15 -6.53125 C 15 -5.25 14.6875 -4.09375 14.0625 -3.0625 C 13.445312 -2.039062 12.597656 -1.238281 11.515625 -0.65625 C 10.429688 -0.0703125 9.210938 0.21875 7.859375 0.21875 Z M 7.859375 -2.34375 C 8.628906 -2.34375 9.328125 -2.519531 9.953125 -2.875 C 10.578125 -3.226562 11.066406 -3.722656 11.421875 -4.359375 C 11.773438 -4.992188 11.953125 -5.71875 11.953125 -6.53125 C 11.953125 -7.332031 11.773438 -8.050781 11.421875 -8.6875 C 11.066406 -9.320312 10.578125 -9.816406 9.953125 -10.171875 C 9.328125 -10.523438 8.628906 -10.703125 7.859375 -10.703125 C 7.085938 -10.703125 6.390625 -10.523438 5.765625 -10.171875 C 5.148438 -9.816406 4.664062 -9.320312 4.3125 -8.6875 C 3.957031 -8.050781 3.78125 -7.332031 3.78125 -6.53125 C 3.78125 -5.71875 3.957031 -4.992188 4.3125 -4.359375 C 4.664062 -3.722656 5.148438 -3.226562 5.765625 -2.875 C 6.390625 -2.519531 7.085938 -2.34375 7.859375 -2.34375 Z M 7.859375 -2.34375 "/></g></g></g><g fill="#ffffff" fill-opacity="1"><g transform="translate(40.905577, 41.178659)"><g><path d="M 7.1875 -13.046875 C 8.34375 -13.046875 9.347656 -12.851562 10.203125 -12.46875 C 11.054688 -12.082031 11.710938 -11.535156 12.171875 -10.828125 C 12.628906 -10.117188 12.859375 -9.28125 12.859375 -8.3125 C 12.859375 -7.351562 12.628906 -6.515625 12.171875 -5.796875 C 11.710938 -5.085938 11.054688 -4.539062 10.203125 -4.15625 C 9.347656 -3.78125 8.34375 -3.59375 7.1875 -3.59375 L 4.5625 -3.59375 L 4.5625 0 L 1.546875 0 L 1.546875 -13.046875 Z M 7.03125 -6.0625 C 7.9375 -6.0625 8.625 -6.253906 9.09375 -6.640625 C 9.570312 -7.035156 9.8125 -7.59375 9.8125 -8.3125 C 9.8125 -9.039062 9.570312 -9.601562 9.09375 -10 C 8.625 -10.394531 7.9375 -10.59375 7.03125 -10.59375 L 4.5625 -10.59375 L 4.5625 -6.0625 Z M 7.03125 -6.0625 "/></g></g></g><g fill="#ffffff" fill-opacity="1"><g transform="translate(69.465129, 41.178659)"><g><path d="M 11.65625 -2.421875 L 11.65625 0 L 1.546875 0 L 1.546875 -13.046875 L 11.40625 -13.046875 L 11.40625 -10.625 L 4.546875 -10.625 L 4.546875 -7.796875 L 10.609375 -7.796875 L 10.609375 -5.4375 L 4.546875 -5.4375 L 4.546875 -2.421875 Z M 11.65625 -2.421875 "/></g></g></g><g fill="#ffffff" fill-opacity="1"><g transform="translate(96.887704, 41.178659)"><g><path d="M 13.515625 -13.046875 L 13.515625 0 L 11.03125 0 L 4.53125 -7.921875 L 4.53125 0 L 1.546875 0 L 1.546875 -13.046875 L 4.046875 -13.046875 L 10.53125 -5.125 L 10.53125 -13.046875 Z M 13.515625 -13.046875 "/></g></g></g><g fill="#ffffff" fill-opacity="1"><g transform="translate(126.863817, 41.178659)"><g/></g></g><g fill="#ffffff" fill-opacity="1"><g transform="translate(147.05445, 41.178659)"><g><path d="M 5.828125 0.21875 C 4.796875 0.21875 3.796875 0.0820312 2.828125 -0.1875 C 1.867188 -0.46875 1.097656 -0.832031 0.515625 -1.28125 L 1.546875 -3.5625 C 2.109375 -3.144531 2.773438 -2.8125 3.546875 -2.5625 C 4.316406 -2.320312 5.085938 -2.203125 5.859375 -2.203125 C 6.710938 -2.203125 7.34375 -2.328125 7.75 -2.578125 C 8.164062 -2.835938 8.375 -3.175781 8.375 -3.59375 C 8.375 -3.90625 8.25 -4.160156 8 -4.359375 C 7.757812 -4.566406 7.445312 -4.734375 7.0625 -4.859375 C 6.6875 -4.984375 6.175781 -5.125 5.53125 -5.28125 C 4.539062 -5.507812 3.726562 -5.742188 3.09375 -5.984375 C 2.457031 -6.222656 1.910156 -6.601562 1.453125 -7.125 C 1.003906 -7.644531 0.78125 -8.335938 0.78125 -9.203125 C 0.78125 -9.960938 0.984375 -10.648438 1.390625 -11.265625 C 1.804688 -11.878906 2.425781 -12.363281 3.25 -12.71875 C 4.082031 -13.082031 5.09375 -13.265625 6.28125 -13.265625 C 7.113281 -13.265625 7.925781 -13.164062 8.71875 -12.96875 C 9.519531 -12.769531 10.21875 -12.484375 10.8125 -12.109375 L 9.875 -9.828125 C 8.675781 -10.503906 7.472656 -10.84375 6.265625 -10.84375 C 5.421875 -10.84375 4.796875 -10.707031 4.390625 -10.4375 C 3.984375 -10.164062 3.78125 -9.804688 3.78125 -9.359375 C 3.78125 -8.910156 4.015625 -8.578125 4.484375 -8.359375 C 4.953125 -8.140625 5.664062 -7.925781 6.625 -7.71875 C 7.613281 -7.476562 8.425781 -7.238281 9.0625 -7 C 9.695312 -6.769531 10.238281 -6.398438 10.6875 -5.890625 C 11.144531 -5.378906 11.375 -4.691406 11.375 -3.828125 C 11.375 -3.078125 11.164062 -2.394531 10.75 -1.78125 C 10.332031 -1.164062 9.707031 -0.675781 8.875 -0.3125 C 8.039062 0.0390625 7.023438 0.21875 5.828125 0.21875 Z M 5.828125 0.21875 "/></g></g></g><g fill="#ffffff" fill-opacity="1"><g transform="translate(173.861934, 41.178659)"><g><path d="M 7.1875 -13.046875 C 8.34375 -13.046875 9.347656 -12.851562 10.203125 -12.46875 C 11.054688 -12.082031 11.710938 -11.535156 12.171875 -10.828125 C 12.628906 -10.117188 12.859375 -9.28125 12.859375 -8.3125 C 12.859375 -7.351562 12.628906 -6.515625 12.171875 -5.796875 C 11.710938 -5.085938 11.054688 -4.539062 10.203125 -4.15625 C 9.347656 -3.78125 8.34375 -3.59375 7.1875 -3.59375 L 4.5625 -3.59375 L 4.5625 0 L 1.546875 0 L 1.546875 -13.046875 Z M 7.03125 -6.0625 C 7.9375 -6.0625 8.625 -6.253906 9.09375 -6.640625 C 9.570312 -7.035156 9.8125 -7.59375 9.8125 -8.3125 C 9.8125 -9.039062 9.570312 -9.601562 9.09375 -10 C 8.625 -10.394531 7.9375 -10.59375 7.03125 -10.59375 L 4.5625 -10.59375 L 4.5625 -6.0625 Z M 7.03125 -6.0625 "/></g></g></g><g fill="#ffffff" fill-opacity="1"><g transform="translate(202.421487, 41.178659)"><g><path d="M 10.140625 -2.796875 L 4.078125 -2.796875 L 2.921875 0 L -0.171875 0 L 5.640625 -13.046875 L 8.625 -13.046875 L 14.46875 0 L 11.296875 0 Z M 9.1875 -5.09375 L 7.125 -10.078125 L 5.046875 -5.09375 Z M 9.1875 -5.09375 "/></g></g></g><g fill="#ffffff" fill-opacity="1"><g transform="translate(231.614763, 41.178659)"><g><path d="M 7.796875 0.21875 C 6.460938 0.21875 5.257812 -0.0664062 4.1875 -0.640625 C 3.113281 -1.222656 2.269531 -2.023438 1.65625 -3.046875 C 1.039062 -4.066406 0.734375 -5.226562 0.734375 -6.53125 C 0.734375 -7.820312 1.039062 -8.976562 1.65625 -10 C 2.269531 -11.019531 3.113281 -11.816406 4.1875 -12.390625 C 5.257812 -12.972656 6.46875 -13.265625 7.8125 -13.265625 C 8.9375 -13.265625 9.957031 -13.066406 10.875 -12.671875 C 11.789062 -12.273438 12.554688 -11.703125 13.171875 -10.953125 L 11.234375 -9.171875 C 10.359375 -10.191406 9.265625 -10.703125 7.953125 -10.703125 C 7.148438 -10.703125 6.429688 -10.523438 5.796875 -10.171875 C 5.160156 -9.816406 4.664062 -9.320312 4.3125 -8.6875 C 3.957031 -8.050781 3.78125 -7.332031 3.78125 -6.53125 C 3.78125 -5.71875 3.957031 -4.992188 4.3125 -4.359375 C 4.664062 -3.722656 5.160156 -3.226562 5.796875 -2.875 C 6.429688 -2.519531 7.148438 -2.34375 7.953125 -2.34375 C 9.265625 -2.34375 10.359375 -2.859375 11.234375 -3.890625 L 13.171875 -2.109375 C 12.554688 -1.347656 11.785156 -0.769531 10.859375 -0.375 C 9.941406 0.0195312 8.921875 0.21875 7.796875 0.21875 Z M 7.796875 0.21875 "/></g></g></g><g fill="#ffffff" fill-opacity="1"><g transform="translate(260.192943, 41.178659)"><g><path d="M 11.65625 -2.421875 L 11.65625 0 L 1.546875 0 L 1.546875 -13.046875 L 11.40625 -13.046875 L 11.40625 -10.625 L 4.546875 -10.625 L 4.546875 -7.796875 L 10.609375 -7.796875 L 10.609375 -5.4375 L 4.546875 -5.4375 L 4.546875 -2.421875 Z M 11.65625 -2.421875 "/></g></g></g><g fill="#ffffff" fill-opacity="1"><g transform="translate(55.080922, 59.485029)"><g><path d="M 3.234375 -1.09375 L 0.953125 -1.09375 L 0.46875 0 L 0.015625 0 L 1.875 -4.09375 L 2.3125 -4.09375 L 4.171875 0 L 3.71875 0 Z M 3.078125 -1.4375 L 2.09375 -3.640625 L 1.109375 -1.4375 Z M 3.078125 -1.4375 "/></g></g></g><g fill="#ffffff" fill-opacity="1"><g transform="translate(62.91923, 59.485029)"><g><path d="M 2.3125 0.03125 C 1.78125 0.03125 1.363281 -0.117188 1.0625 -0.421875 C 0.769531 -0.722656 0.625 -1.164062 0.625 -1.75 L 0.625 -4.09375 L 1.0625 -4.09375 L 1.0625 -1.765625 C 1.0625 -1.285156 1.164062 -0.925781 1.375 -0.6875 C 1.59375 -0.457031 1.90625 -0.34375 2.3125 -0.34375 C 2.71875 -0.34375 3.03125 -0.457031 3.25 -0.6875 C 3.46875 -0.925781 3.578125 -1.285156 3.578125 -1.765625 L 3.578125 -4.09375 L 3.984375 -4.09375 L 3.984375 -1.75 C 3.984375 -1.164062 3.835938 -0.722656 3.546875 -0.421875 C 3.253906 -0.117188 2.84375 0.03125 2.3125 0.03125 Z M 2.3125 0.03125 "/></g></g></g><g fill="#ffffff" fill-opacity="1"><g transform="translate(71.195272, 59.485029)"><g><path d="M 1.453125 -3.71875 L 0.015625 -3.71875 L 0.015625 -4.09375 L 3.328125 -4.09375 L 3.328125 -3.71875 L 1.890625 -3.71875 L 1.890625 0 L 1.453125 0 Z M 1.453125 -3.71875 "/></g></g></g><g fill="#ffffff" fill-opacity="1"><g transform="translate(78.198968, 59.485029)"><g><path d="M 2.453125 0.03125 C 2.046875 0.03125 1.675781 -0.0546875 1.34375 -0.234375 C 1.019531 -0.421875 0.765625 -0.671875 0.578125 -0.984375 C 0.390625 -1.296875 0.296875 -1.648438 0.296875 -2.046875 C 0.296875 -2.441406 0.390625 -2.796875 0.578125 -3.109375 C 0.765625 -3.421875 1.019531 -3.664062 1.34375 -3.84375 C 1.675781 -4.03125 2.046875 -4.125 2.453125 -4.125 C 2.859375 -4.125 3.222656 -4.035156 3.546875 -3.859375 C 3.867188 -3.679688 4.125 -3.429688 4.3125 -3.109375 C 4.5 -2.796875 4.59375 -2.441406 4.59375 -2.046875 C 4.59375 -1.648438 4.5 -1.289062 4.3125 -0.96875 C 4.125 -0.65625 3.867188 -0.410156 3.546875 -0.234375 C 3.222656 -0.0546875 2.859375 0.03125 2.453125 0.03125 Z M 2.453125 -0.34375 C 2.773438 -0.34375 3.066406 -0.414062 3.328125 -0.5625 C 3.585938 -0.707031 3.789062 -0.910156 3.9375 -1.171875 C 4.09375 -1.429688 4.171875 -1.722656 4.171875 -2.046875 C 4.171875 -2.367188 4.09375 -2.65625 3.9375 -2.90625 C 3.789062 -3.164062 3.585938 -3.367188 3.328125 -3.515625 C 3.066406 -3.660156 2.773438 -3.734375 2.453125 -3.734375 C 2.128906 -3.734375 1.835938 -3.660156 1.578125 -3.515625 C 1.316406 -3.367188 1.109375 -3.164062 0.953125 -2.90625 C 0.804688 -2.65625 0.734375 -2.367188 0.734375 -2.046875 C 0.734375 -1.722656 0.804688 -1.429688 0.953125 -1.171875 C 1.109375 -0.910156 1.316406 -0.707031 1.578125 -0.5625 C 1.835938 -0.414062 2.128906 -0.34375 2.453125 -0.34375 Z M 2.453125 -0.34375 "/></g></g></g><g fill="#ffffff" fill-opacity="1"><g transform="translate(86.749318, 59.485029)"><g><path d="M 4.921875 -4.09375 L 4.921875 0 L 4.5 0 L 4.5 -3.265625 L 2.890625 -0.515625 L 2.6875 -0.515625 L 1.078125 -3.25 L 1.078125 0 L 0.671875 0 L 0.671875 -4.09375 L 1.015625 -4.09375 L 2.796875 -1.0625 L 4.5625 -4.09375 Z M 4.921875 -4.09375 "/></g></g></g><g fill="#ffffff" fill-opacity="1"><g transform="translate(95.976697, 59.485029)"><g><path d="M 3.234375 -1.09375 L 0.953125 -1.09375 L 0.46875 0 L 0.015625 0 L 1.875 -4.09375 L 2.3125 -4.09375 L 4.171875 0 L 3.71875 0 Z M 3.078125 -1.4375 L 2.09375 -3.640625 L 1.109375 -1.4375 Z M 3.078125 -1.4375 "/></g></g></g><g fill="#ffffff" fill-opacity="1"><g transform="translate(103.815005, 59.485029)"><g><path d="M 2.4375 0.03125 C 2.03125 0.03125 1.664062 -0.0546875 1.34375 -0.234375 C 1.019531 -0.410156 0.765625 -0.65625 0.578125 -0.96875 C 0.390625 -1.289062 0.296875 -1.648438 0.296875 -2.046875 C 0.296875 -2.441406 0.390625 -2.796875 0.578125 -3.109375 C 0.765625 -3.429688 1.019531 -3.679688 1.34375 -3.859375 C 1.675781 -4.035156 2.046875 -4.125 2.453125 -4.125 C 2.753906 -4.125 3.03125 -4.070312 3.28125 -3.96875 C 3.539062 -3.875 3.757812 -3.726562 3.9375 -3.53125 L 3.671875 -3.25 C 3.347656 -3.570312 2.941406 -3.734375 2.453125 -3.734375 C 2.128906 -3.734375 1.835938 -3.660156 1.578125 -3.515625 C 1.316406 -3.367188 1.109375 -3.164062 0.953125 -2.90625 C 0.804688 -2.65625 0.734375 -2.367188 0.734375 -2.046875 C 0.734375 -1.722656 0.804688 -1.429688 0.953125 -1.171875 C 1.109375 -0.921875 1.316406 -0.71875 1.578125 -0.5625 C 1.835938 -0.414062 2.128906 -0.34375 2.453125 -0.34375 C 2.953125 -0.34375 3.359375 -0.507812 3.671875 -0.84375 L 3.9375 -0.5625 C 3.757812 -0.375 3.539062 -0.226562 3.28125 -0.125 C 3.03125 -0.0195312 2.75 0.03125 2.4375 0.03125 Z M 2.234375 1.28125 C 2.035156 1.28125 1.867188 1.238281 1.734375 1.15625 L 1.84375 0.921875 C 1.945312 1.003906 2.070312 1.046875 2.21875 1.046875 C 2.332031 1.046875 2.421875 1.019531 2.484375 0.96875 C 2.546875 0.925781 2.578125 0.859375 2.578125 0.765625 C 2.578125 0.679688 2.546875 0.613281 2.484375 0.5625 C 2.429688 0.519531 2.34375 0.5 2.21875 0.5 L 2.09375 0.5 L 2.234375 -0.03125 L 2.484375 -0.03125 L 2.390625 0.296875 C 2.546875 0.316406 2.664062 0.367188 2.75 0.453125 C 2.84375 0.535156 2.890625 0.644531 2.890625 0.78125 C 2.890625 0.9375 2.828125 1.054688 2.703125 1.140625 C 2.585938 1.234375 2.429688 1.28125 2.234375 1.28125 Z M 2.234375 1.28125 "/></g></g></g><g fill="#ffffff" fill-opacity="1"><g transform="translate(111.664987, 59.485029)"><g><path d="M 3.234375 -1.09375 L 0.953125 -1.09375 L 0.46875 0 L 0.015625 0 L 1.875 -4.09375 L 2.3125 -4.09375 L 4.171875 0 L 3.71875 0 Z M 3.078125 -1.4375 L 2.09375 -3.640625 L 1.109375 -1.4375 Z M 2.484375 -4.453125 C 2.398438 -4.453125 2.320312 -4.472656 2.25 -4.515625 C 2.175781 -4.554688 2.097656 -4.613281 2.015625 -4.6875 C 1.953125 -4.75 1.898438 -4.789062 1.859375 -4.8125 C 1.816406 -4.84375 1.769531 -4.859375 1.71875 -4.859375 C 1.632812 -4.859375 1.5625 -4.820312 1.5 -4.75 C 1.445312 -4.6875 1.421875 -4.597656 1.421875 -4.484375 L 1.171875 -4.484375 C 1.171875 -4.679688 1.21875 -4.835938 1.3125 -4.953125 C 1.40625 -5.066406 1.53125 -5.125 1.6875 -5.125 C 1.78125 -5.125 1.859375 -5.101562 1.921875 -5.0625 C 1.992188 -5.03125 2.078125 -4.972656 2.171875 -4.890625 C 2.234375 -4.835938 2.285156 -4.796875 2.328125 -4.765625 C 2.367188 -4.742188 2.410156 -4.734375 2.453125 -4.734375 C 2.546875 -4.734375 2.617188 -4.765625 2.671875 -4.828125 C 2.722656 -4.890625 2.753906 -4.976562 2.765625 -5.09375 L 3.015625 -5.09375 C 3.003906 -4.894531 2.953125 -4.738281 2.859375 -4.625 C 2.765625 -4.507812 2.640625 -4.453125 2.484375 -4.453125 Z M 2.484375 -4.453125 "/></g></g></g><g fill="#ffffff" fill-opacity="1"><g transform="translate(119.503296, 59.485029)"><g><path d="M 2.453125 0.03125 C 2.046875 0.03125 1.675781 -0.0546875 1.34375 -0.234375 C 1.019531 -0.421875 0.765625 -0.671875 0.578125 -0.984375 C 0.390625 -1.296875 0.296875 -1.648438 0.296875 -2.046875 C 0.296875 -2.441406 0.390625 -2.796875 0.578125 -3.109375 C 0.765625 -3.421875 1.019531 -3.664062 1.34375 -3.84375 C 1.675781 -4.03125 2.046875 -4.125 2.453125 -4.125 C 2.859375 -4.125 3.222656 -4.035156 3.546875 -3.859375 C 3.867188 -3.679688 4.125 -3.429688 4.3125 -3.109375 C 4.5 -2.796875 4.59375 -2.441406 4.59375 -2.046875 C 4.59375 -1.648438 4.5 -1.289062 4.3125 -0.96875 C 4.125 -0.65625 3.867188 -0.410156 3.546875 -0.234375 C 3.222656 -0.0546875 2.859375 0.03125 2.453125 0.03125 Z M 2.453125 -0.34375 C 2.773438 -0.34375 3.066406 -0.414062 3.328125 -0.5625 C 3.585938 -0.707031 3.789062 -0.910156 3.9375 -1.171875 C 4.09375 -1.429688 4.171875 -1.722656 4.171875 -2.046875 C 4.171875 -2.367188 4.09375 -2.65625 3.9375 -2.90625 C 3.789062 -3.164062 3.585938 -3.367188 3.328125 -3.515625 C 3.066406 -3.660156 2.773438 -3.734375 2.453125 -3.734375 C 2.128906 -3.734375 1.835938 -3.660156 1.578125 -3.515625 C 1.316406 -3.367188 1.109375 -3.164062 0.953125 -2.90625 C 0.804688 -2.65625 0.734375 -2.367188 0.734375 -2.046875 C 0.734375 -1.722656 0.804688 -1.429688 0.953125 -1.171875 C 1.109375 -0.910156 1.316406 -0.707031 1.578125 -0.5625 C 1.835938 -0.414062 2.128906 -0.34375 2.453125 -0.34375 Z M 2.453125 -0.34375 "/></g></g></g><g fill="#ffffff" fill-opacity="1"><g transform="translate(128.05365, 59.485029)"><g/></g></g><g fill="#ffffff" fill-opacity="1"><g transform="translate(133.236378, 59.485029)"><g><path d="M 3.5625 -0.375 L 3.5625 0 L 0.671875 0 L 0.671875 -4.09375 L 3.46875 -4.09375 L 3.46875 -3.71875 L 1.09375 -3.71875 L 1.09375 -2.265625 L 3.21875 -2.265625 L 3.21875 -1.890625 L 1.09375 -1.890625 L 1.09375 -0.375 Z M 3.5625 -0.375 "/></g></g></g><g fill="#ffffff" fill-opacity="1"><g transform="translate(140.794534, 59.485029)"><g/></g></g><g fill="#ffffff" fill-opacity="1"><g transform="translate(145.977261, 59.485029)"><g><path d="M 1.796875 0.03125 C 1.492188 0.03125 1.203125 -0.015625 0.921875 -0.109375 C 0.640625 -0.203125 0.425781 -0.332031 0.28125 -0.5 L 0.4375 -0.828125 C 0.59375 -0.679688 0.789062 -0.5625 1.03125 -0.46875 C 1.28125 -0.375 1.535156 -0.328125 1.796875 -0.328125 C 2.160156 -0.328125 2.429688 -0.394531 2.609375 -0.53125 C 2.796875 -0.664062 2.890625 -0.84375 2.890625 -1.0625 C 2.890625 -1.21875 2.835938 -1.34375 2.734375 -1.4375 C 2.640625 -1.539062 2.519531 -1.617188 2.375 -1.671875 C 2.226562 -1.722656 2.03125 -1.78125 1.78125 -1.84375 C 1.46875 -1.925781 1.21875 -2 1.03125 -2.0625 C 0.851562 -2.132812 0.695312 -2.242188 0.5625 -2.390625 C 0.4375 -2.546875 0.375 -2.75 0.375 -3 C 0.375 -3.207031 0.425781 -3.394531 0.53125 -3.5625 C 0.644531 -3.738281 0.8125 -3.875 1.03125 -3.96875 C 1.257812 -4.070312 1.539062 -4.125 1.875 -4.125 C 2.113281 -4.125 2.34375 -4.09375 2.5625 -4.03125 C 2.789062 -3.96875 2.988281 -3.878906 3.15625 -3.765625 L 3 -3.421875 C 2.832031 -3.535156 2.648438 -3.617188 2.453125 -3.671875 C 2.253906 -3.722656 2.0625 -3.75 1.875 -3.75 C 1.519531 -3.75 1.25 -3.679688 1.0625 -3.546875 C 0.882812 -3.410156 0.796875 -3.234375 0.796875 -3.015625 C 0.796875 -2.847656 0.84375 -2.710938 0.9375 -2.609375 C 1.039062 -2.515625 1.164062 -2.441406 1.3125 -2.390625 C 1.46875 -2.335938 1.671875 -2.28125 1.921875 -2.21875 C 2.222656 -2.144531 2.46875 -2.070312 2.65625 -2 C 2.84375 -1.925781 3 -1.816406 3.125 -1.671875 C 3.25 -1.523438 3.3125 -1.328125 3.3125 -1.078125 C 3.3125 -0.867188 3.253906 -0.679688 3.140625 -0.515625 C 3.035156 -0.347656 2.867188 -0.210938 2.640625 -0.109375 C 2.410156 -0.015625 2.128906 0.03125 1.796875 0.03125 Z M 1.796875 0.03125 "/></g></g></g><g fill="#ffffff" fill-opacity="1"><g transform="translate(153.220247, 59.485029)"><g><path d="M 2.453125 0.03125 C 2.046875 0.03125 1.675781 -0.0546875 1.34375 -0.234375 C 1.019531 -0.421875 0.765625 -0.671875 0.578125 -0.984375 C 0.390625 -1.296875 0.296875 -1.648438 0.296875 -2.046875 C 0.296875 -2.441406 0.390625 -2.796875 0.578125 -3.109375 C 0.765625 -3.421875 1.019531 -3.664062 1.34375 -3.84375 C 1.675781 -4.03125 2.046875 -4.125 2.453125 -4.125 C 2.859375 -4.125 3.222656 -4.035156 3.546875 -3.859375 C 3.867188 -3.679688 4.125 -3.429688 4.3125 -3.109375 C 4.5 -2.796875 4.59375 -2.441406 4.59375 -2.046875 C 4.59375 -1.648438 4.5 -1.289062 4.3125 -0.96875 C 4.125 -0.65625 3.867188 -0.410156 3.546875 -0.234375 C 3.222656 -0.0546875 2.859375 0.03125 2.453125 0.03125 Z M 2.453125 -0.34375 C 2.773438 -0.34375 3.066406 -0.414062 3.328125 -0.5625 C 3.585938 -0.707031 3.789062 -0.910156 3.9375 -1.171875 C 4.09375 -1.429688 4.171875 -1.722656 4.171875 -2.046875 C 4.171875 -2.367188 4.09375 -2.65625 3.9375 -2.90625 C 3.789062 -3.164062 3.585938 -3.367188 3.328125 -3.515625 C 3.066406 -3.660156 2.773438 -3.734375 2.453125 -3.734375 C 2.128906 -3.734375 1.835938 -3.660156 1.578125 -3.515625 C 1.316406 -3.367188 1.109375 -3.164062 0.953125 -2.90625 C 0.804688 -2.65625 0.734375 -2.367188 0.734375 -2.046875 C 0.734375 -1.722656 0.804688 -1.429688 0.953125 -1.171875 C 1.109375 -0.910156 1.316406 -0.707031 1.578125 -0.5625 C 1.835938 -0.414062 2.128906 -0.34375 2.453125 -0.34375 Z M 2.453125 -0.34375 "/></g></g></g><g fill="#ffffff" fill-opacity="1"><g transform="translate(161.770601, 59.485029)"><g><path d="M 2.4375 0.03125 C 2.03125 0.03125 1.664062 -0.0546875 1.34375 -0.234375 C 1.019531 -0.410156 0.765625 -0.65625 0.578125 -0.96875 C 0.390625 -1.289062 0.296875 -1.648438 0.296875 -2.046875 C 0.296875 -2.441406 0.390625 -2.796875 0.578125 -3.109375 C 0.765625 -3.429688 1.019531 -3.679688 1.34375 -3.859375 C 1.675781 -4.035156 2.046875 -4.125 2.453125 -4.125 C 2.753906 -4.125 3.03125 -4.070312 3.28125 -3.96875 C 3.539062 -3.875 3.757812 -3.726562 3.9375 -3.53125 L 3.671875 -3.25 C 3.347656 -3.570312 2.941406 -3.734375 2.453125 -3.734375 C 2.128906 -3.734375 1.835938 -3.660156 1.578125 -3.515625 C 1.316406 -3.367188 1.109375 -3.164062 0.953125 -2.90625 C 0.804688 -2.65625 0.734375 -2.367188 0.734375 -2.046875 C 0.734375 -1.722656 0.804688 -1.429688 0.953125 -1.171875 C 1.109375 -0.921875 1.316406 -0.71875 1.578125 -0.5625 C 1.835938 -0.414062 2.128906 -0.34375 2.453125 -0.34375 C 2.953125 -0.34375 3.359375 -0.507812 3.671875 -0.84375 L 3.9375 -0.5625 C 3.757812 -0.375 3.539062 -0.226562 3.28125 -0.125 C 3.03125 -0.0195312 2.75 0.03125 2.4375 0.03125 Z M 2.4375 0.03125 "/></g></g></g><g fill="#ffffff" fill-opacity="1"><g transform="translate(169.620587, 59.485029)"><g><path d="M 0.671875 -4.09375 L 1.09375 -4.09375 L 1.09375 0 L 0.671875 0 Z M 0.671875 -4.09375 "/></g></g></g><g fill="#ffffff" fill-opacity="1"><g transform="translate(175.036769, 59.485029)"><g><path d="M 3.234375 -1.09375 L 0.953125 -1.09375 L 0.46875 0 L 0.015625 0 L 1.875 -4.09375 L 2.3125 -4.09375 L 4.171875 0 L 3.71875 0 Z M 3.078125 -1.4375 L 2.09375 -3.640625 L 1.109375 -1.4375 Z M 3.078125 -1.4375 "/></g></g></g><g fill="#ffffff" fill-opacity="1"><g transform="translate(182.875073, 59.485029)"><g><path d="M 0.671875 -4.09375 L 1.09375 -4.09375 L 1.09375 -0.375 L 3.390625 -0.375 L 3.390625 0 L 0.671875 0 Z M 0.671875 -4.09375 "/></g></g></g><g fill="#ffffff" fill-opacity="1"><g transform="translate(189.966314, 59.485029)"><g/></g></g><g fill="#ffffff" fill-opacity="1"><g transform="translate(195.149049, 59.485029)"><g><path d="M 4.921875 -4.09375 L 4.921875 0 L 4.5 0 L 4.5 -3.265625 L 2.890625 -0.515625 L 2.6875 -0.515625 L 1.078125 -3.25 L 1.078125 0 L 0.671875 0 L 0.671875 -4.09375 L 1.015625 -4.09375 L 2.796875 -1.0625 L 4.5625 -4.09375 Z M 4.921875 -4.09375 "/></g></g></g><g fill="#ffffff" fill-opacity="1"><g transform="translate(204.376424, 59.485029)"><g><path d="M 0.671875 -4.09375 L 1.09375 -4.09375 L 1.09375 0 L 0.671875 0 Z M 0.671875 -4.09375 "/></g></g></g><g fill="#ffffff" fill-opacity="1"><g transform="translate(209.792606, 59.485029)"><g><path d="M 0.671875 -4.09375 L 2.328125 -4.09375 C 2.765625 -4.09375 3.144531 -4.003906 3.46875 -3.828125 C 3.800781 -3.660156 4.054688 -3.421875 4.234375 -3.109375 C 4.421875 -2.796875 4.515625 -2.441406 4.515625 -2.046875 C 4.515625 -1.648438 4.421875 -1.296875 4.234375 -0.984375 C 4.054688 -0.671875 3.800781 -0.425781 3.46875 -0.25 C 3.144531 -0.0820312 2.765625 0 2.328125 0 L 0.671875 0 Z M 2.3125 -0.375 C 2.664062 -0.375 2.976562 -0.441406 3.25 -0.578125 C 3.519531 -0.722656 3.726562 -0.921875 3.875 -1.171875 C 4.019531 -1.421875 4.09375 -1.710938 4.09375 -2.046875 C 4.09375 -2.367188 4.019531 -2.65625 3.875 -2.90625 C 3.726562 -3.164062 3.519531 -3.363281 3.25 -3.5 C 2.976562 -3.644531 2.664062 -3.71875 2.3125 -3.71875 L 1.09375 -3.71875 L 1.09375 -0.375 Z M 2.3125 -0.375 "/></g></g></g><g fill="#ffffff" fill-opacity="1"><g transform="translate(218.267084, 59.485029)"><g><path d="M 0.671875 -4.09375 L 1.09375 -4.09375 L 1.09375 0 L 0.671875 0 Z M 0.671875 -4.09375 "/></g></g></g><g fill="#ffffff" fill-opacity="1"><g transform="translate(223.683265, 59.485029)"><g><path d="M 3.234375 -1.09375 L 0.953125 -1.09375 L 0.46875 0 L 0.015625 0 L 1.875 -4.09375 L 2.3125 -4.09375 L 4.171875 0 L 3.71875 0 Z M 3.078125 -1.4375 L 2.09375 -3.640625 L 1.109375 -1.4375 Z M 3.078125 -1.4375 "/></g></g></g></svg>